<svg width="40.000000" height="40.000000" viewBox="0 0 40 40" fill="none" xmlns="http://www.w3.org/2000/svg" xmlns:xlink="http://www.w3.org/1999/xlink">
	<desc>
			Created with Pixso.
	</desc>
	<defs>
		<clipPath id="clip1_7">
			<rect id="akar-icons:search" width="18.000000" height="18.000000" transform="translate(11.000000 11.000000)" fill="white" fill-opacity="0"/>
		</clipPath>
	</defs>
	<rect id="Frame 48095395" rx="20.000000" width="40.000000" height="40.000000" fill="#E58411" fill-opacity="1.000000"/>
	<rect id="akar-icons:search" width="18.000000" height="18.000000" transform="translate(11.000000 11.000000)" fill="#FFFFFF" fill-opacity="0"/>
	<g clip-path="url(#clip1_7)">
		<path id="Vector" d="M26.75 26.75L23.38 23.37M23.38 23.38C22.18 24.57 20.56 25.25 18.87 25.25C17.18 25.25 15.56 24.57 14.36 23.38C13.17 22.18 12.5 20.56 12.5 18.87C12.5 17.18 13.17 15.56 14.36 14.36C15.56 13.17 17.18 12.5 18.87 12.5C20.56 12.5 22.18 13.17 23.38 14.36C24.57 15.56 25.25 17.18 25.25 18.87C25.25 20.56 24.57 22.18 23.38 23.38Z" stroke="#FFFFFF" stroke-opacity="1.000000" stroke-width="2.000000" stroke-linecap="round"/>
	</g>
</svg>
