<svg width="71.000000" height="20.000000" viewBox="0 0 71 20" fill="none" xmlns="http://www.w3.org/2000/svg" xmlns:xlink="http://www.w3.org/1999/xlink">
	<desc>
			Created with Pixso.
	</desc>
	<defs/>
	<path id="Panto" d="M13.34 8.77Q14.19 7.42 14.19 5.53Q14.19 3.51 13.25 2.16Q12.9 1.66 12.42 1.25Q10.64 -0.27 7.4 -0.27L-0.71 -0.27L-0.71 19L1.9 19L1.9 11.49L7.56 11.49Q10.39 11.49 12.13 10.11Q12.27 10 12.41 9.88Q12.96 9.38 13.34 8.77ZM54.32 19.08Q54.78 19.01 55.23 18.89L55.23 17.07Q54.3 17.26 53.81 17.26Q52.96 17.26 52.61 16.84Q52.6 16.83 52.6 16.83Q52.25 16.4 52.25 15.33L52.25 5.99L54.98 5.99L54.98 4.2L52.25 4.2L52.25 0.89L50.61 0.89L49.88 4.2L48.08 4.2L48.08 5.99L49.79 5.99L49.79 15.86Q49.79 17.75 50.72 18.57Q51.45 19.21 52.74 19.21Q53.54 19.21 54.32 19.08ZM10.82 3.13Q11.57 4.03 11.57 5.56Q11.57 7.25 10.73 8.21Q9.65 9.42 7.19 9.42L1.9 9.42L1.9 1.82L7.08 1.82Q9.73 1.82 10.82 3.13ZM18.39 18.22Q19.5 19.27 21.61 19.27Q23.4 19.27 24.65 18.56Q25.9 17.86 26.85 16.16L26.93 16.16Q27.01 17.7 27.63 18.41Q27.66 18.45 27.7 18.48Q28.32 19.13 29.62 19.13Q30.4 19.13 31.16 18.99Q31.34 18.96 31.52 18.91L31.52 17.38Q31.07 17.48 30.72 17.48Q30.13 17.48 29.82 17.18Q29.7 17.07 29.62 16.92Q29.34 16.37 29.34 15.28L29.34 8.91Q29.34 6.87 28.34 5.64Q28.15 5.41 27.93 5.21Q26.52 3.93 23.73 3.93Q20.25 3.93 18.78 5.65Q18.01 6.55 17.8 7.92L20.37 8.15Q20.5 7.04 21.13 6.47Q21.2 6.42 21.27 6.36Q22.02 5.8 23.68 5.8Q25.32 5.8 26.08 6.58Q26.85 7.36 26.85 9.16L26.85 9.97L23.53 10.03Q20.16 10.11 18.65 11.34Q18.22 11.69 17.92 12.12Q17.14 13.22 17.14 14.87Q17.14 16.69 18.02 17.82Q18.13 17.96 18.26 18.09Q18.32 18.16 18.39 18.22ZM43.08 9.62L43.08 19L45.56 19L45.56 9.14Q45.56 6.35 44.43 5.14Q43.3 3.93 40.87 3.93Q39.21 3.93 38.1 4.56Q36.98 5.2 36.14 6.73L36.1 6.73Q36.07 5.65 36.05 5.26Q36.03 4.87 36.01 4.57Q36 4.27 35.99 4.2L33.66 4.2Q33.74 4.78 33.74 7.36L33.74 19L36.21 19L36.21 10.42Q36.21 8.26 37.23 7.05Q37.59 6.62 38.03 6.35Q38.87 5.83 40.03 5.83Q41.25 5.83 41.88 6.18Q41.99 6.25 42.08 6.32Q42.56 6.68 42.8 7.35Q43.08 8.15 43.08 9.62ZM68.4 17.37Q70.11 15.47 70.11 11.58Q70.11 7.66 68.51 5.79Q68.36 5.62 68.2 5.47Q66.6 3.93 63.52 3.93Q60.68 3.93 59.06 5.34Q56.89 7.21 56.89 11.58Q56.89 15.32 58.54 17.29Q58.87 17.69 59.27 18Q60.84 19.27 63.44 19.27Q66.17 19.27 67.81 17.93Q68.13 17.68 68.4 17.37ZM66.62 7.13Q67.53 8.52 67.53 11.58Q67.53 14.61 66.58 16.03Q66.36 16.35 66.08 16.6Q65.13 17.45 63.41 17.45Q62.06 17.45 61.19 16.8Q60.75 16.48 60.42 15.98Q59.47 14.51 59.47 11.58Q59.47 8.58 60.44 7.16Q60.68 6.81 60.99 6.55Q61.94 5.75 63.56 5.75Q65.21 5.75 66.13 6.57Q66.41 6.81 66.62 7.13ZM24.29 16.96Q23.35 17.42 22.17 17.42Q21.08 17.42 20.45 16.89Q20.38 16.83 20.32 16.77Q20.26 16.71 20.21 16.65Q19.67 16.01 19.67 14.91Q19.67 13.8 20.15 13.12Q20.22 13.02 20.3 12.93Q20.76 12.39 21.52 12.1Q22.42 11.78 24.15 11.75L26.85 11.69L26.85 12.91Q26.85 13.12 26.83 13.33Q26.73 14.25 26.24 15.12Q25.91 15.7 25.45 16.15Q25.06 16.53 24.58 16.81Q24.44 16.89 24.29 16.96Z" fill="#FFFFFF" fill-opacity="1.000000" fill-rule="evenodd"/>
</svg>
