<svg width="10.000000" height="6.000000" viewBox="0 0 10 6" fill="none" xmlns="http://www.w3.org/2000/svg" xmlns:xlink="http://www.w3.org/1999/xlink">
	<desc>
			Created with Pixso.
	</desc>
	<defs/>
	<path id="Vector" d="M6.1e-5 0.99C-0.01 1.12 0.02 1.25 0.06 1.36C0.11 1.48 0.18 1.58 0.26 1.66L4.54 5.8C4.67 5.93 4.83 6 5 6C5.16 6 5.32 5.93 5.45 5.8L9.74 1.51C9.88 1.37 9.97 1.16 9.99 0.93C10.01 0.71 9.95 0.48 9.83 0.3C9.71 0.13 9.53 0.02 9.35 0C9.16 -0.02 8.97 0.05 8.82 0.19L4.99 4.03L1.17 0.32C1.06 0.22 0.93 0.15 0.8 0.13C0.66 0.11 0.53 0.14 0.4 0.21C0.28 0.28 0.18 0.39 0.1 0.53C0.03 0.67 -0.01 0.83 6.1e-5 0.99Z" fill="#FFFFFF" fill-opacity="1.000000" fill-rule="nonzero"/>
</svg>
